<svg xmlns="http://www.w3.org/2000/svg" viewBox="0 0 360 560" role="img" aria-label="卡壳的主播">
  <defs>
    <linearGradient id="suit" x1="0" x2="1" y1="0" y2="1">
      <stop offset="0" stop-color="#30466d"/>
      <stop offset="1" stop-color="#151821"/>
    </linearGradient>
  </defs>
  <path d="M64 548c10-122 48-184 116-184s106 62 116 184Z" fill="url(#suit)"/>
  <path d="M142 368l38 76l38-76" fill="#edf2f7"/>
  <path d="M170 413h20l16 92l-26 26l-26-26Z" fill="#d69a2d"/>
  <circle cx="180" cy="226" r="98" fill="#efc39b"/>
  <path d="M86 211c5-92 62-146 125-130c65 16 86 60 70 142c-24-44-61-59-118-54c-36 3-60 17-77 42Z" fill="#252322"/>
  <path d="M128 246c18-16 38-12 50 6M206 252c12-18 34-20 52-6" fill="none" stroke="#262423" stroke-width="8" stroke-linecap="round"/>
  <ellipse cx="181" cy="309" rx="20" ry="11" fill="#8a3a30"/>
  <path d="M178 252l-10 35h27" fill="none" stroke="#b5765c" stroke-width="6" stroke-linecap="round" stroke-linejoin="round"/>
  <rect x="88" y="326" width="184" height="50" rx="25" fill="#efc39b"/>
  <path d="M68 140l-24-22M292 142l26-25M71 292l-28 14M291 291l30 12" stroke="#f6d26b" stroke-width="9" stroke-linecap="round"/>
  <text x="180" y="72" text-anchor="middle" font-family="Microsoft YaHei, sans-serif" font-size="30" font-weight="700" fill="#f6f0d0">呃</text>
</svg>
