<svg xmlns="http://www.w3.org/2000/svg" viewBox="0 0 360 560" role="img" aria-label="红温的主播">
  <defs>
    <linearGradient id="suit" x1="0" x2="1" y1="0" y2="1">
      <stop offset="0" stop-color="#3b2630"/>
      <stop offset="1" stop-color="#161018"/>
    </linearGradient>
  </defs>
  <path d="M64 548c10-122 48-184 116-184s106 62 116 184Z" fill="url(#suit)"/>
  <path d="M142 368l38 76l38-76" fill="#edf2f7"/>
  <path d="M170 413h20l16 92l-26 26l-26-26Z" fill="#d84a4a"/>
  <circle cx="180" cy="226" r="98" fill="#f0a08e"/>
  <path d="M86 211c5-92 62-146 125-130c65 16 86 60 70 142c-24-44-61-59-118-54c-36 3-60 17-77 42Z" fill="#262423"/>
  <path d="M128 250c18-16 38-12 50 6M206 256c12-18 34-20 52-6" fill="none" stroke="#262423" stroke-width="8" stroke-linecap="round"/>
  <path d="M152 312c22 12 44 12 66 0" fill="none" stroke="#7e1f1f" stroke-width="8" stroke-linecap="round"/>
  <path d="M178 252l-10 35h27" fill="none" stroke="#b85a4d" stroke-width="6" stroke-linecap="round" stroke-linejoin="round"/>
  <rect x="88" y="326" width="184" height="50" rx="25" fill="#f0a08e"/>
  <path d="M64 138l-26-32M296 138l28-32M62 286l-36 18M298 286l38 18" stroke="#d84a4a" stroke-width="10" stroke-linecap="round"/>
  <text x="180" y="72" text-anchor="middle" font-family="Microsoft YaHei, sans-serif" font-size="30" font-weight="700" fill="#ffe0e0">红温</text>
</svg>
