<svg xmlns="http://www.w3.org/2000/svg" viewBox="0 0 1600 620" role="img" aria-label="新闻演播室背景">
  <defs>
    <linearGradient id="wall" x1="0" x2="1" y1="0" y2="1">
      <stop offset="0" stop-color="#142c52"/>
      <stop offset="0.52" stop-color="#1b344d"/>
      <stop offset="1" stop-color="#32241d"/>
    </linearGradient>
    <linearGradient id="desk" x1="0" x2="1">
      <stop offset="0" stop-color="#11243d"/>
      <stop offset="0.5" stop-color="#2f6fed"/>
      <stop offset="1" stop-color="#7d2d30"/>
    </linearGradient>
    <pattern id="grid" width="52" height="52" patternUnits="userSpaceOnUse">
      <path d="M52 0H0V52" fill="none" stroke="#ffffff" stroke-opacity="0.07" stroke-width="2"/>
    </pattern>
  </defs>
  <rect width="1600" height="620" fill="url(#wall)"/>
  <rect width="1600" height="620" fill="url(#grid)"/>
  <path d="M0 116C266 44 392 48 604 112C830 180 972 175 1200 98C1368 41 1498 43 1600 72V0H0Z" fill="#ffffff" opacity="0.06"/>
  <g opacity="0.45">
    <circle cx="140" cy="140" r="78" fill="none" stroke="#9fc5ff" stroke-width="5"/>
    <path d="M72 140h136M140 72v136M90 88c52 38 66 88 36 152M190 90c-52 38-66 88-36 150" fill="none" stroke="#9fc5ff" stroke-width="4"/>
  </g>
  <g transform="translate(1120 92)" opacity="0.38">
    <rect x="0" y="0" width="330" height="170" rx="10" fill="#08111e" stroke="#ffffff" stroke-opacity="0.26"/>
    <path d="M28 122h276M28 86h210M28 50h260" stroke="#58c1ff" stroke-width="10" stroke-linecap="round"/>
    <path d="M28 140c62-50 110-18 166-55c42-28 72-44 110-20" fill="none" stroke="#f6d26b" stroke-width="8" stroke-linecap="round"/>
  </g>
  <path d="M160 462h1280l82 158H78Z" fill="url(#desk)"/>
  <path d="M230 492h1140" stroke="#ffffff" stroke-opacity="0.32" stroke-width="3"/>
  <rect x="588" y="486" width="424" height="86" rx="14" fill="#0b111a" opacity="0.62"/>
  <text x="800" y="541" text-anchor="middle" font-family="Microsoft YaHei, sans-serif" font-size="44" font-weight="700" fill="#f6f0d0">NEWS 9527</text>
</svg>
